<svg width="20" height="21" viewBox="0 0 20 21" fill="none" xmlns="http://www.w3.org/2000/svg">
<g clip-path="url(#clip0_192_56)">
<path d="M15.2721 20.4L4.74573 20.41C2.42995 20.4121 0.533629 18.5195 0.530998 16.2037L0.520998 5.67738C0.518893 3.36159 2.41152 1.46527 4.72731 1.46264L15.2536 1.45264C17.5694 1.45053 19.4657 3.34317 19.4684 5.65895L19.4784 16.1853C19.481 18.5016 17.5878 20.3979 15.2721 20.4Z" fill="url(#paint0_radial_192_56)"/>
<path d="M15.2721 20.4L4.74573 20.41C2.42995 20.4121 0.533629 18.5195 0.530998 16.2037L0.520998 5.67738C0.518893 3.36159 2.41152 1.46527 4.72731 1.46264L15.2536 1.45264C17.5694 1.45053 19.4657 3.34317 19.4684 5.65895L19.4784 16.1853C19.481 18.5016 17.5878 20.3979 15.2721 20.4Z" fill="url(#paint1_radial_192_56)"/>
<path d="M9.99988 14.616C7.96883 14.616 6.31567 12.9633 6.31567 10.9318C6.31567 8.90019 7.96883 7.24756 9.99988 7.24756C12.0309 7.24756 13.6841 8.90019 13.6841 10.9318C13.6841 12.9633 12.0309 14.616 9.99988 14.616ZM9.99988 8.30019C8.54883 8.30019 7.36831 9.48072 7.36831 10.9318C7.36831 12.3828 8.54883 13.5633 9.99988 13.5633C11.4509 13.5633 12.6315 12.3828 12.6315 10.9318C12.6315 9.48072 11.4509 8.30019 9.99988 8.30019Z" fill="white"/>
<path d="M13.9474 7.77377C14.3834 7.77377 14.7369 7.42031 14.7369 6.9843C14.7369 6.54828 14.3834 6.19482 13.9474 6.19482C13.5114 6.19482 13.158 6.54828 13.158 6.9843C13.158 7.42031 13.5114 7.77377 13.9474 7.77377Z" fill="white"/>
<path d="M13.158 17.7736H6.84217C4.81112 17.7736 3.15796 16.1209 3.15796 14.0894V7.77357C3.15796 5.74199 4.81112 4.08936 6.84217 4.08936H13.158C15.189 4.08936 16.8422 5.74199 16.8422 7.77357V14.0894C16.8422 16.1209 15.189 17.7736 13.158 17.7736ZM6.84217 5.14199C5.39112 5.14199 4.21059 6.32251 4.21059 7.77357V14.0894C4.21059 15.5404 5.39112 16.7209 6.84217 16.7209H13.158C14.609 16.7209 15.7895 15.5404 15.7895 14.0894V7.77357C15.7895 6.32251 14.609 5.14199 13.158 5.14199H6.84217Z" fill="white"/>
</g>
<defs>
<radialGradient id="paint0_radial_192_56" cx="0" cy="0" r="1" gradientUnits="userSpaceOnUse" gradientTransform="translate(7.56837 20.4237) scale(23.6311)">
<stop stop-color="#FFDD55"/>
<stop offset="0.328" stop-color="#FF543F"/>
<stop offset="0.348" stop-color="#FC5245"/>
<stop offset="0.504" stop-color="#E64771"/>
<stop offset="0.643" stop-color="#D53E91"/>
<stop offset="0.761" stop-color="#CC39A4"/>
<stop offset="0.841" stop-color="#C837AB"/>
</radialGradient>
<radialGradient id="paint1_radial_192_56" cx="0" cy="0" r="1" gradientUnits="userSpaceOnUse" gradientTransform="translate(3.57152 1.21596) scale(15.6911 10.4549)">
<stop stop-color="#4168C9"/>
<stop offset="0.999" stop-color="#4168C9" stop-opacity="0"/>
</radialGradient>
<clipPath id="clip0_192_56">
<rect width="20" height="20" fill="white" transform="translate(0 0.931641)"/>
</clipPath>
</defs>
</svg>
