<svg width="20" height="21" viewBox="0 0 20 21" fill="none" xmlns="http://www.w3.org/2000/svg">
<g clip-path="url(#clip0_192_64)">
<path d="M9.99988 1.40771C7.47401 1.40771 5.05159 2.41111 3.26553 4.19717C1.47947 5.98323 0.476074 8.40565 0.476074 10.9315C0.476074 13.4574 1.47947 15.8798 3.26553 17.6659C5.05159 19.4519 7.47401 20.4553 9.99988 20.4553C12.5258 20.4553 14.9482 19.4519 16.7342 17.6659C18.5203 15.8798 19.5237 13.4574 19.5237 10.9315C19.5237 8.40565 18.5203 5.98323 16.7342 4.19717C14.9482 2.41111 12.5258 1.40771 9.99988 1.40771Z" fill="#29B6F6"/>
<path d="M14.738 6.64611L12.9542 15.7537C12.9542 15.7537 12.8775 16.1699 12.3613 16.1699C12.0871 16.1699 11.9456 16.0394 11.9456 16.0394L8.08182 12.8333L6.19135 11.8804L3.76516 11.2352C3.76516 11.2352 3.33325 11.1104 3.33325 10.7533C3.33325 10.4556 3.77754 10.3137 3.77754 10.3137L13.928 6.28135C13.928 6.28135 14.238 6.16945 14.4642 6.16992C14.6033 6.16992 14.7618 6.22945 14.7618 6.40802C14.7618 6.52707 14.738 6.64611 14.738 6.64611Z" fill="white"/>
<path d="M9.52374 14.0292L7.89231 15.6358C7.89231 15.6358 7.82136 15.6906 7.7266 15.693C7.69374 15.6939 7.6585 15.6887 7.62231 15.6725L8.08136 12.832L9.52374 14.0292Z" fill="#B0BEC5"/>
<path d="M12.808 8.16799C12.7276 8.06323 12.579 8.04418 12.4742 8.1237L6.19043 11.8842C6.19043 11.8842 7.19329 14.6899 7.34614 15.1756C7.49948 15.6618 7.62233 15.6732 7.62233 15.6732L8.08138 12.8328L12.7633 8.50132C12.868 8.4218 12.8876 8.27275 12.808 8.16799Z" fill="#CFD8DC"/>
</g>
<defs>
<clipPath id="clip0_192_64">
<rect width="20" height="20" fill="white" transform="translate(0 0.931641)"/>
</clipPath>
</defs>
</svg>
