<svg width="374" height="376" viewBox="0 0 374 376" fill="none" xmlns="http://www.w3.org/2000/svg">
<g clip-path="url(#clip0_137_1527)">
<mask id="mask0_137_1527" style="mask-type:luminance" maskUnits="userSpaceOnUse" x="188" y="10" width="12" height="12">
<path d="M188.551 15.4811L194.462 10.8628L199.5 17.3116L193.589 21.9299L188.551 15.4811Z" fill="white"/>
</mask>
<g mask="url(#mask0_137_1527)">
<path d="M190.173 16.2379C190.368 16.4945 190.619 16.6804 190.917 16.8035C192.576 17.4784 194.242 18.1958 195.88 18.9397C196.101 19.0325 196.328 19.0782 196.566 19.0836C196.801 19.0857 197.033 19.0426 197.255 18.9595C197.475 18.8731 197.672 18.7453 197.844 18.5844C198.019 18.421 198.153 18.2317 198.251 18.0112C198.349 17.7966 198.401 17.5703 198.412 17.3331C198.423 17.0959 198.386 16.8647 198.306 16.6402C198.223 16.4182 198.105 16.2188 197.945 16.0411C197.785 15.8633 197.602 15.7246 197.388 15.6208C195.707 14.8568 193.989 14.1119 192.298 13.4302C191.915 13.2728 191.524 13.2487 191.126 13.3578C190.728 13.467 190.402 13.6895 190.153 14.0168C189.907 14.3474 189.784 14.7199 189.787 15.1318C189.79 15.5438 189.92 15.9146 190.175 16.2412L190.173 16.2379Z" fill="#E9D1FF"/>
</g>
<mask id="mask1_137_1527" style="mask-type:luminance" maskUnits="userSpaceOnUse" x="37" y="11" width="327" height="329">
<path d="M37.2878 150.846L216.004 11.2175L363.129 199.529L184.413 339.157L37.2878 150.846Z" fill="white"/>
</mask>
<g mask="url(#mask1_137_1527)">
<path d="M183.201 337.32C183.265 337.403 183.336 337.48 183.414 337.552C183.597 337.712 183.797 337.832 184.026 337.914C184.252 337.992 184.486 338.027 184.726 338.014C184.966 338.002 185.197 337.944 185.415 337.843C185.634 337.735 185.821 337.594 185.986 337.418C188.453 334.694 190.884 331.876 193.23 329.038C193.381 328.851 193.493 328.641 193.567 328.409C193.637 328.179 193.66 327.943 193.636 327.702C193.612 327.46 193.541 327.234 193.43 327.023C193.316 326.809 193.166 326.624 192.982 326.47C192.792 326.316 192.582 326.203 192.352 326.133C192.122 326.063 191.886 326.04 191.645 326.064C191.407 326.086 191.178 326.153 190.964 326.267C190.75 326.381 190.565 326.531 190.413 326.718C188.111 329.516 185.715 332.291 183.284 334.971C183.139 335.133 183.027 335.31 182.943 335.508C182.865 335.707 182.822 335.917 182.813 336.13C182.805 336.344 182.836 336.554 182.903 336.762C182.97 336.964 183.069 337.152 183.201 337.32ZM197.189 320.378C197.364 320.603 197.579 320.775 197.835 320.899C198.091 321.023 198.361 321.083 198.645 321.079C198.925 321.077 199.196 321.009 199.447 320.882C199.704 320.756 199.914 320.576 200.082 320.349C202.289 317.408 204.451 314.375 206.515 311.333C206.656 311.133 206.749 310.912 206.799 310.676C206.852 310.438 206.852 310.2 206.809 309.962C206.764 309.721 206.672 309.501 206.542 309.3C206.409 309.095 206.242 308.923 206.041 308.788C205.84 308.653 205.618 308.56 205.383 308.51C205.144 308.463 204.903 308.46 204.668 308.506C204.429 308.554 204.207 308.643 204.005 308.779C203.803 308.916 203.637 309.083 203.502 309.284C201.459 312.266 199.337 315.268 197.165 318.166C196.923 318.488 196.801 318.854 196.802 319.257C196.802 319.666 196.925 320.027 197.168 320.352L197.189 320.378ZM209.528 302.196C209.665 302.371 209.823 302.513 210.015 302.628C210.22 302.755 210.443 302.836 210.679 302.874C210.92 302.91 211.156 302.9 211.39 302.845C211.626 302.788 211.841 302.689 212.035 302.548C212.231 302.406 212.393 302.232 212.519 302.026C214.441 298.884 216.313 295.663 218.085 292.451C218.2 292.239 218.273 292.012 218.296 291.77C218.323 291.532 218.304 291.297 218.237 291.062C218.17 290.833 218.062 290.62 217.909 290.431C217.759 290.246 217.578 290.09 217.366 289.974C217.153 289.859 216.927 289.786 216.688 289.76C216.448 289.73 216.212 289.755 215.98 289.819C215.746 289.885 215.538 289.994 215.35 290.147C215.158 290.297 215.008 290.478 214.89 290.687C213.147 293.855 211.308 297.029 209.41 300.121C209.213 300.44 209.125 300.79 209.144 301.168C209.164 301.546 209.289 301.883 209.518 302.183L209.528 302.196ZM184.665 247.31C184.802 247.506 184.972 247.676 185.174 247.805C185.378 247.937 185.597 248.027 185.836 248.074C186.072 248.118 186.311 248.117 186.546 248.066C186.785 248.018 187.003 247.922 187.204 247.786C187.406 247.649 187.57 247.479 187.702 247.274C187.834 247.076 187.924 246.851 187.968 246.615C188.012 246.379 188.012 246.14 187.96 245.904C187.912 245.666 187.82 245.446 187.68 245.247C185.888 242.232 184.568 239.019 183.728 235.612C183.673 235.379 183.574 235.164 183.431 234.967C183.288 234.771 183.114 234.609 182.906 234.485C182.701 234.359 182.478 234.278 182.241 234.24C182.001 234.204 181.764 234.214 181.531 234.269C181.294 234.326 181.079 234.425 180.883 234.568C180.686 234.711 180.528 234.882 180.401 235.093C180.274 235.298 180.193 235.521 180.155 235.758C180.119 235.998 180.129 236.235 180.187 236.471C181.109 240.229 182.561 243.774 184.539 247.101C184.581 247.189 184.624 247.257 184.665 247.31ZM191.449 255.911C191.491 255.979 191.543 256.045 191.601 256.106C194.364 258.792 197.434 261.063 200.812 262.912C201.025 263.028 201.252 263.1 201.493 263.124C201.735 263.148 201.97 263.129 202.202 263.059C202.434 262.989 202.645 262.878 202.834 262.725C203.022 262.572 203.173 262.391 203.288 262.178C203.404 261.966 203.474 261.736 203.5 261.498C203.524 261.256 203.499 261.02 203.432 260.785C203.365 260.557 203.254 260.346 203.101 260.157C202.948 259.969 202.767 259.818 202.551 259.705C199.467 258.008 196.663 255.928 194.143 253.472C193.978 253.314 193.788 253.187 193.578 253.101C193.365 253.012 193.141 252.964 192.912 252.963C192.68 252.958 192.46 252.997 192.241 253.077C192.029 253.158 191.833 253.275 191.661 253.429C191.494 253.582 191.352 253.761 191.252 253.967C191.147 254.172 191.084 254.39 191.065 254.618C191.043 254.848 191.066 255.074 191.131 255.294C191.193 255.516 191.297 255.717 191.439 255.898L191.449 255.911ZM220.11 282.927C220.205 283.049 220.315 283.155 220.437 283.251C220.557 283.343 220.691 283.419 220.835 283.481C220.977 283.541 221.121 283.582 221.276 283.604C221.428 283.629 221.58 283.633 221.731 283.615C221.888 283.599 222.036 283.563 222.18 283.509C222.326 283.459 222.46 283.386 222.587 283.297C222.715 283.208 222.826 283.106 222.926 282.99C223.027 282.874 223.112 282.744 223.179 282.606C224.801 279.304 226.362 275.917 227.819 272.553C227.912 272.332 227.964 272.1 227.967 271.859C227.973 271.615 227.93 271.383 227.839 271.157C227.753 270.932 227.622 270.731 227.456 270.558C227.287 270.383 227.091 270.248 226.867 270.152C226.646 270.059 226.414 270.007 226.173 270.004C225.929 269.998 225.697 270.041 225.471 270.133C225.249 270.222 225.048 270.352 224.875 270.519C224.699 270.688 224.565 270.883 224.472 271.105C223.039 274.424 221.497 277.753 219.905 281.005C219.752 281.321 219.694 281.647 219.732 281.995C219.77 282.343 219.896 282.653 220.11 282.927ZM210.528 266.264C210.796 266.607 211.146 266.823 211.572 266.92C215.314 267.732 219.096 268.086 222.923 267.98C223.178 267.993 223.427 267.958 223.665 267.868C223.905 267.781 224.115 267.649 224.301 267.472C224.484 267.292 224.622 267.088 224.72 266.853C224.817 266.617 224.863 266.369 224.855 266.115C224.851 265.858 224.794 265.615 224.683 265.384C224.577 265.153 224.425 264.953 224.234 264.789C224.043 264.619 223.825 264.497 223.578 264.419C223.337 264.342 223.09 264.317 222.836 264.346C219.304 264.449 215.81 264.124 212.362 263.376C211.985 263.294 211.62 263.324 211.265 263.474C210.912 263.621 210.633 263.861 210.429 264.185C210.225 264.509 210.131 264.864 210.149 265.248C210.168 265.632 210.298 265.977 210.533 266.277L210.528 266.264ZM179.753 226.282C179.982 226.575 180.273 226.778 180.623 226.893C180.979 227.008 181.33 227.015 181.688 226.916C182.043 226.814 182.344 226.621 182.582 226.334C182.82 226.053 182.961 225.73 183 225.359C183.128 224.197 183.326 223.049 183.596 221.914C184.132 219.71 184.964 217.626 186.097 215.657C186.225 215.446 186.306 215.217 186.345 214.975C186.378 214.731 186.366 214.491 186.306 214.251C186.243 214.008 186.138 213.792 185.986 213.598C185.838 213.4 185.654 213.241 185.439 213.122C185.225 212.997 184.996 212.921 184.752 212.894C184.505 212.864 184.263 212.888 184.025 212.957C183.79 213.024 183.577 213.138 183.384 213.293C183.195 213.452 183.04 213.641 182.928 213.857C181.629 216.125 180.675 218.528 180.065 221.066C179.761 222.349 179.54 223.643 179.4 224.953C179.343 225.444 179.468 225.883 179.766 226.271L179.753 226.282ZM228.837 262.76C229.04 263.02 229.295 263.209 229.598 263.333C229.906 263.454 230.22 263.49 230.548 263.441C230.877 263.392 231.164 263.263 231.422 263.056C231.677 262.846 231.861 262.591 231.979 262.281C232.522 260.847 233.06 259.38 233.573 257.922C234.292 255.879 234.967 253.784 235.551 251.724C235.609 251.492 235.625 251.262 235.589 251.025C235.558 250.788 235.484 250.57 235.366 250.365C235.245 250.156 235.094 249.983 234.906 249.837C234.721 249.69 234.51 249.583 234.283 249.516C234.052 249.452 233.822 249.436 233.586 249.461C233.347 249.488 233.124 249.556 232.916 249.671C232.706 249.782 232.529 249.93 232.376 250.114C232.228 250.299 232.116 250.503 232.044 250.73C231.481 252.715 230.84 254.724 230.138 256.707C229.631 258.139 229.099 259.58 228.57 260.997C228.456 261.293 228.425 261.6 228.473 261.913C228.517 262.228 228.641 262.509 228.837 262.76ZM232.309 265.789C232.527 266.076 232.809 266.28 233.15 266.397C233.493 266.516 233.837 266.535 234.187 266.446C237.869 265.536 241.428 264.285 244.871 262.695C245.098 262.597 245.294 262.46 245.468 262.282C245.638 262.106 245.767 261.904 245.858 261.674C245.943 261.442 245.985 261.203 245.976 260.96C245.967 260.712 245.913 260.478 245.812 260.254C245.708 260.033 245.565 259.836 245.383 259.671C245.2 259.505 244.995 259.379 244.763 259.299C244.529 259.217 244.288 259.182 244.045 259.196C243.798 259.214 243.564 259.275 243.342 259.384C240.114 260.876 236.773 262.052 233.319 262.907C233.171 262.943 233.028 262.997 232.893 263.07C232.762 263.14 232.638 263.226 232.524 263.332C232.411 263.431 232.316 263.548 232.229 263.674C232.147 263.801 232.08 263.939 232.03 264.079C231.979 264.225 231.949 264.37 231.936 264.524C231.924 264.677 231.929 264.827 231.955 264.977C231.982 265.126 232.021 265.271 232.084 265.413C232.144 265.551 232.224 265.68 232.317 265.799L232.309 265.789ZM190.171 207.571L190.199 207.608C190.349 207.793 190.533 207.947 190.746 208.057C190.959 208.172 191.183 208.241 191.424 208.265C191.666 208.289 191.902 208.264 192.131 208.197C192.363 208.127 192.573 208.016 192.762 207.863C192.95 207.716 193.142 207.566 193.336 207.414C195.888 205.405 198.687 203.834 201.731 202.698C201.946 202.605 202.132 202.476 202.292 202.308C202.456 202.143 202.583 201.953 202.672 201.74C202.758 201.524 202.807 201.301 202.811 201.069C202.816 200.837 202.778 200.611 202.697 200.398C202.616 200.18 202.497 199.986 202.339 199.812C202.184 199.641 202.002 199.502 201.794 199.399C201.586 199.296 201.369 199.236 201.136 199.217C200.905 199.2 200.679 199.223 200.456 199.291C197.054 200.547 193.923 202.291 191.069 204.527C190.858 204.692 190.644 204.859 190.433 205.024C190.247 205.174 190.097 205.355 189.985 205.565C189.872 205.775 189.803 205.999 189.777 206.238C189.754 206.473 189.773 206.708 189.84 206.937C189.907 207.166 190.013 207.376 190.163 207.561L190.171 207.571ZM234.707 241.615C235.006 241.998 235.393 242.227 235.871 242.295C236.111 242.33 236.348 242.32 236.584 242.263C236.818 242.202 237.033 242.103 237.227 241.957C237.42 241.817 237.582 241.643 237.706 241.434C237.83 241.226 237.911 241.003 237.949 240.767C238.529 237.035 238.79 233.283 238.738 229.504C238.732 229.265 238.683 229.032 238.585 228.811C238.487 228.591 238.352 228.398 238.179 228.231C238.003 228.06 237.804 227.934 237.579 227.844C237.357 227.757 237.121 227.713 236.882 227.72C236.637 227.725 236.407 227.778 236.183 227.872C235.962 227.971 235.77 228.105 235.602 228.278C235.432 228.454 235.306 228.653 235.218 228.881C235.131 229.103 235.091 229.337 235.094 229.579C235.145 233.146 234.897 236.697 234.342 240.222C234.263 240.74 234.388 241.206 234.707 241.615ZM252.18 256.676C252.324 256.861 252.496 257.013 252.7 257.131C252.9 257.251 253.117 257.325 253.348 257.362C253.58 257.394 253.807 257.386 254.035 257.33C254.265 257.278 254.473 257.184 254.666 257.05C255.56 256.42 256.439 255.771 257.284 255.111C258.567 254.108 259.828 253.038 261.007 251.963C261.78 251.252 262.551 250.512 263.296 249.766C263.478 249.597 263.615 249.399 263.715 249.173C263.817 248.95 263.87 248.712 263.873 248.465C263.877 248.218 263.831 247.982 263.74 247.75C263.646 247.521 263.512 247.323 263.337 247.146C263.165 246.973 262.964 246.838 262.733 246.747C262.506 246.654 262.264 246.609 262.019 246.615C261.771 246.617 261.535 246.669 261.311 246.769C261.087 246.87 260.888 247.01 260.72 247.189C260.009 247.898 259.279 248.595 258.543 249.271C257.421 250.297 256.246 251.295 255.039 252.238C254.237 252.864 253.405 253.478 252.572 254.064C252.373 254.204 252.209 254.375 252.08 254.576C251.951 254.778 251.864 255 251.822 255.24C251.782 255.473 251.788 255.713 251.84 255.949C251.891 256.185 251.984 256.399 252.124 256.598L252.18 256.676ZM210.429 200.212C210.787 200.67 211.25 200.903 211.833 200.915C215.275 200.941 218.524 201.748 221.584 203.326C221.797 203.441 222.024 203.508 222.267 203.526C222.508 203.55 222.741 203.522 222.973 203.452C223.203 203.379 223.411 203.264 223.597 203.114C223.783 202.958 223.931 202.773 224.044 202.557C224.157 202.342 224.223 202.114 224.244 201.875C224.267 201.633 224.243 201.398 224.169 201.168C224.1 200.936 223.985 200.728 223.831 200.545C223.675 200.359 223.494 200.208 223.278 200.095C219.706 198.249 215.911 197.309 211.893 197.272C211.542 197.265 211.218 197.353 210.915 197.537C210.618 197.721 210.391 197.967 210.233 198.282C210.075 198.597 210.014 198.926 210.048 199.276C210.086 199.624 210.209 199.937 210.425 200.214L210.429 200.212ZM233.987 219.798C234.255 220.141 234.603 220.363 235.027 220.457C235.453 220.554 235.859 220.503 236.251 220.303C236.639 220.106 236.923 219.81 237.097 219.408C237.271 219.012 237.301 218.601 237.179 218.18C236.157 214.384 234.479 210.903 232.145 207.739C232.002 207.548 231.824 207.389 231.616 207.265C231.407 207.141 231.187 207.064 230.947 207.028C230.707 206.993 230.469 207.008 230.235 207.069C230.001 207.13 229.786 207.229 229.592 207.375C229.402 207.518 229.243 207.696 229.119 207.904C228.995 208.113 228.916 208.339 228.884 208.576C228.849 208.816 228.862 209.051 228.922 209.285C228.98 209.521 229.082 209.734 229.228 209.928C231.288 212.727 232.771 215.808 233.671 219.163C233.728 219.4 233.834 219.61 233.98 219.804L233.987 219.798ZM267.719 241.264C267.819 241.392 267.939 241.505 268.07 241.605C268.264 241.751 268.481 241.852 268.713 241.911C268.948 241.966 269.185 241.977 269.424 241.944C269.661 241.908 269.886 241.828 270.092 241.704C270.301 241.578 270.476 241.42 270.622 241.226C272.844 238.21 274.867 235.068 276.689 231.79C276.807 231.581 276.88 231.354 276.909 231.114C276.936 230.875 276.917 230.64 276.85 230.405C276.786 230.174 276.678 229.961 276.529 229.77C276.379 229.584 276.198 229.428 275.985 229.312C275.776 229.194 275.55 229.121 275.309 229.092C275.068 229.062 274.833 229.081 274.598 229.148C274.369 229.215 274.156 229.323 273.965 229.473C273.776 229.625 273.623 229.803 273.505 230.013C271.756 233.153 269.82 236.169 267.691 239.059C267.448 239.387 267.328 239.757 267.334 240.167C267.338 240.573 267.466 240.94 267.719 241.264ZM278.455 222.145C278.553 222.27 278.665 222.38 278.793 222.476C278.918 222.575 279.055 222.648 279.2 222.711C279.347 222.771 279.501 222.81 279.659 222.83C279.815 222.852 279.973 222.85 280.131 222.828C280.288 222.811 280.439 222.767 280.586 222.711C280.734 222.649 280.869 222.57 280.997 222.475C281.122 222.377 281.234 222.269 281.33 222.14C281.429 222.015 281.509 221.879 281.571 221.734C282.98 218.418 284.28 214.901 285.434 211.285C285.504 211.055 285.529 210.822 285.508 210.584C285.484 210.343 285.416 210.12 285.308 209.907C285.196 209.696 285.049 209.514 284.865 209.36C284.684 209.204 284.478 209.089 284.248 209.019C284.021 208.946 283.786 208.918 283.551 208.936C283.31 208.955 283.085 209.019 282.869 209.124C282.656 209.232 282.471 209.376 282.315 209.557C282.158 209.738 282.041 209.941 281.965 210.17C280.832 213.69 279.569 217.105 278.205 220.322C278.078 220.623 278.039 220.94 278.083 221.267C278.126 221.595 278.251 221.884 278.455 222.145ZM285.219 201.253C285.433 201.527 285.704 201.724 286.035 201.843C286.364 201.963 286.698 201.984 287.044 201.91C287.384 201.835 287.678 201.675 287.929 201.431C288.18 201.182 288.344 200.889 288.425 200.55C289.273 196.971 290 193.305 290.562 189.626C290.6 189.389 290.594 189.15 290.533 188.915C290.478 188.682 290.38 188.467 290.237 188.271C290.094 188.074 289.92 187.913 289.715 187.786C289.506 187.662 289.287 187.579 289.047 187.543C288.807 187.502 288.57 187.511 288.336 187.572C288.103 187.627 287.885 187.728 287.692 187.869C287.495 188.012 287.334 188.186 287.207 188.391C287.083 188.599 286.999 188.819 286.961 189.061C286.403 192.631 285.701 196.213 284.875 199.705C284.742 200.282 284.866 200.801 285.236 201.261L285.219 201.253ZM288.625 179.559C288.855 179.852 289.149 180.058 289.507 180.171C289.866 180.284 290.224 180.286 290.583 180.181C290.945 180.073 291.241 179.874 291.477 179.578C291.712 179.288 291.846 178.955 291.877 178.58C292.171 174.918 292.335 171.184 292.358 167.474C292.37 167.225 292.331 166.985 292.243 166.756C292.156 166.522 292.029 166.318 291.857 166.139C291.688 165.957 291.49 165.82 291.261 165.723C291.034 165.624 290.796 165.57 290.552 165.57C290.301 165.569 290.066 165.615 289.837 165.709C289.608 165.803 289.406 165.94 289.232 166.118C289.061 166.294 288.929 166.498 288.838 166.729C288.747 166.959 288.706 167.199 288.714 167.447C288.687 171.064 288.528 174.716 288.242 178.286C288.204 178.767 288.336 179.195 288.639 179.569L288.625 179.559ZM288.806 157.617C289.05 157.93 289.367 158.145 289.753 158.252C290.134 158.359 290.515 158.343 290.89 158.198C291.263 158.056 291.56 157.818 291.775 157.481C291.992 157.146 292.085 156.776 292.062 156.38C291.826 152.713 291.455 148.987 290.963 145.318C290.949 145.063 290.884 144.822 290.768 144.593C290.656 144.368 290.498 144.172 290.303 144.011C290.106 143.847 289.884 143.733 289.642 143.662C289.397 143.593 289.146 143.577 288.894 143.609C288.642 143.646 288.405 143.731 288.189 143.862C287.97 143.996 287.791 144.168 287.646 144.377C287.501 144.586 287.404 144.815 287.355 145.066C287.307 145.316 287.312 145.568 287.364 145.819C287.852 149.4 288.197 153.03 288.419 156.639C288.448 157.004 288.579 157.327 288.806 157.617ZM285.888 135.838C286.148 136.171 286.485 136.391 286.897 136.49C287.307 136.594 287.706 136.553 288.091 136.38C288.477 136.2 288.764 135.923 288.957 135.544C289.146 135.167 289.201 134.769 289.115 134.352C288.388 130.756 287.52 127.116 286.547 123.546C286.481 123.311 286.379 123.099 286.229 122.907C286.08 122.716 285.902 122.557 285.693 122.439C285.482 122.317 285.255 122.245 285.017 122.213C284.776 122.183 284.539 122.199 284.307 122.263C284.07 122.326 283.86 122.431 283.669 122.581C283.478 122.73 283.319 122.908 283.2 123.117C283.079 123.329 283.006 123.555 282.977 123.796C282.945 124.034 282.96 124.271 283.027 124.506C283.982 127.999 284.831 131.554 285.542 135.083C285.597 135.364 285.713 135.614 285.888 135.838ZM205.009 23.3291C205.166 23.5303 205.356 23.6907 205.579 23.8136C208.712 25.5253 211.852 27.417 214.887 29.391C215.089 29.5202 215.309 29.6038 215.545 29.6477C215.781 29.6916 216.017 29.6878 216.253 29.6363C216.486 29.5873 216.703 29.4917 216.899 29.3547C217.097 29.221 217.261 29.0503 217.391 28.8485C217.526 28.6473 217.612 28.4313 217.656 28.1951C217.703 27.9564 217.699 27.7203 217.65 27.4877C217.604 27.2524 217.512 27.0323 217.378 26.834C217.245 26.6357 217.077 26.469 216.879 26.3373C213.763 24.3145 210.555 22.3907 207.325 20.6223C206.945 20.4146 206.541 20.3472 206.114 20.426C205.687 20.5047 205.334 20.7118 205.051 21.044C204.772 21.3735 204.627 21.7582 204.621 22.193C204.613 22.6244 204.747 23.0136 205.018 23.3541L205.009 23.3291ZM280.104 114.646C280.238 114.818 280.393 114.962 280.579 115.077C280.762 115.189 280.958 115.27 281.167 115.313C281.383 115.358 281.594 115.363 281.809 115.333C282.019 115.302 282.221 115.234 282.412 115.132C282.601 115.027 282.769 114.896 282.909 114.734C283.054 114.573 283.166 114.39 283.241 114.187C283.319 113.988 283.363 113.779 283.365 113.564C283.371 113.347 283.334 113.137 283.264 112.932C282.072 109.454 280.741 105.963 279.32 102.552C279.225 102.329 279.094 102.134 278.924 101.964C278.751 101.791 278.556 101.656 278.331 101.566C278.11 101.473 277.877 101.427 277.633 101.427C277.391 101.43 277.159 101.473 276.936 101.568C276.712 101.663 276.517 101.794 276.344 101.966C276.174 102.136 276.042 102.335 275.949 102.556C275.859 102.781 275.813 103.014 275.813 103.252C275.813 103.497 275.862 103.729 275.951 103.952C277.345 107.293 278.646 110.712 279.817 114.122C279.886 114.312 279.984 114.485 280.111 114.641L280.104 114.646ZM223.425 35.2943C223.523 35.4197 223.635 35.5289 223.763 35.6251C226.62 37.792 229.449 40.1076 232.174 42.4939C232.355 42.6653 232.561 42.7919 232.792 42.877C233.023 42.962 233.263 42.9975 233.509 42.9859C233.755 42.9744 233.992 42.9169 234.214 42.807C234.439 42.7005 234.627 42.5536 234.79 42.3678C234.953 42.182 235.077 41.9736 235.153 41.7385C235.23 41.5033 235.259 41.2624 235.239 41.0183C235.221 40.7716 235.151 40.5394 235.038 40.3197C234.922 40.1026 234.769 39.9139 234.577 39.7561C231.79 37.3115 228.896 34.9461 225.966 32.7196C225.792 32.5848 225.598 32.4865 225.385 32.4246C225.173 32.3567 224.955 32.3359 224.735 32.3478C224.513 32.3622 224.301 32.4167 224.098 32.5111C223.899 32.6029 223.72 32.7271 223.563 32.8867C223.406 33.0464 223.286 33.2255 223.192 33.4258C223.102 33.6294 223.052 33.8439 223.039 34.066C223.027 34.2882 223.051 34.5029 223.121 34.7142C223.187 34.9281 223.289 35.1195 223.425 35.2943ZM271.665 94.3599C271.805 94.5381 271.972 94.6838 272.166 94.7972C272.361 94.9106 272.564 94.9862 272.785 95.0253C273.011 95.0619 273.232 95.0592 273.452 95.0147C273.669 94.9727 273.876 94.8908 274.063 94.7707C274.254 94.648 274.416 94.5008 274.551 94.3206C274.686 94.1404 274.785 93.9408 274.847 93.7278C274.907 93.5114 274.928 93.2933 274.911 93.0675C274.89 92.8443 274.83 92.6312 274.732 92.4313C273.102 89.1207 271.345 85.8243 269.509 82.6317C269.389 82.4171 269.235 82.2402 269.044 82.0915C268.848 81.9422 268.637 81.8358 268.403 81.7742C268.17 81.7068 267.93 81.6923 267.694 81.7229C267.452 81.7528 267.227 81.8326 267.016 81.9498C266.807 82.0703 266.627 82.2271 266.481 82.4209C266.332 82.6114 266.229 82.8253 266.164 83.0619C266.102 83.2959 266.085 83.5324 266.118 83.772C266.152 84.0117 266.228 84.2388 266.349 84.4474C268.144 87.5756 269.865 90.8048 271.466 94.0432C271.521 94.1543 271.588 94.261 271.665 94.3599ZM239.933 49.7599C239.973 49.8186 240.02 49.8779 240.067 49.9314C242.602 52.4823 245.081 55.1665 247.463 57.8954C247.62 58.0757 247.808 58.221 248.027 58.3314C248.243 58.4385 248.471 58.4993 248.714 58.5172C248.956 58.535 249.189 58.507 249.42 58.4279C249.647 58.3514 249.858 58.2342 250.038 58.0774C250.222 57.918 250.367 57.7301 250.474 57.5136C250.581 57.2971 250.645 57.0664 250.663 56.8241C250.678 56.5843 250.647 56.3479 250.574 56.1183C250.495 55.8879 250.377 55.6825 250.218 55.499C247.808 52.707 245.259 49.9755 242.675 47.3679C242.516 47.1843 242.328 47.039 242.108 46.9344C241.891 46.8273 241.663 46.7665 241.421 46.7487C241.178 46.7367 240.941 46.7674 240.714 46.8439C240.484 46.9229 240.279 47.0409 240.098 47.2035C239.914 47.3629 239.771 47.5541 239.664 47.7706C239.557 47.9871 239.496 48.2152 239.484 48.4583C239.467 48.7006 239.5 48.9344 239.577 49.1615C239.656 49.3919 239.774 49.5972 239.933 49.7808L239.933 49.7599ZM260.705 75.3C260.848 75.4965 261.022 75.658 261.227 75.7846C261.432 75.9112 261.654 75.9981 261.894 76.0336C262.134 76.0749 262.371 76.0652 262.604 76.0103C262.841 75.9529 263.056 75.8541 263.255 75.7145C263.448 75.5742 263.609 75.4002 263.739 75.1925C263.866 74.9873 263.947 74.7647 263.985 74.5278C264.026 74.2883 264.017 74.0515 263.962 73.8181C263.908 73.5789 263.809 73.364 263.666 73.1675C261.64 70.1184 259.468 67.0605 257.24 64.1268C257.096 63.9362 256.919 63.7772 256.707 63.6558C256.501 63.5351 256.275 63.4567 256.038 63.4245C255.797 63.3949 255.56 63.4046 255.329 63.4687C255.095 63.5294 254.879 63.6341 254.685 63.7803C254.497 63.9272 254.338 64.1045 254.214 64.3129C254.096 64.5221 254.017 64.748 253.985 64.9857C253.953 65.2233 253.965 65.4633 254.029 65.6949C254.09 65.929 254.192 66.1413 254.338 66.3352C256.521 69.2037 258.636 72.1832 260.637 75.1992L260.705 75.3Z" fill="#E9D1FF"/>
</g>
<path d="M171.685 349.165C171.72 349.217 171.759 349.267 171.801 349.313C171.968 349.486 172.162 349.626 172.383 349.719C172.604 349.818 172.836 349.87 173.077 349.873C173.321 349.879 173.553 349.836 173.778 349.75C174.003 349.664 174.204 349.534 174.377 349.367C175.704 348.102 177.01 346.816 178.307 345.511C178.491 345.345 178.634 345.148 178.734 344.922C178.839 344.696 178.892 344.458 178.899 344.209C178.902 343.962 178.86 343.724 178.769 343.492C178.678 343.26 178.542 343.058 178.367 342.882C178.192 342.705 177.991 342.57 177.76 342.479C177.531 342.383 177.291 342.341 177.043 342.344C176.792 342.349 176.556 342.4 176.329 342.503C176.105 342.604 175.905 342.75 175.737 342.929C174.458 344.209 173.162 345.487 171.865 346.73C171.699 346.885 171.57 347.066 171.473 347.269C171.379 347.475 171.323 347.689 171.308 347.914C171.289 348.141 171.316 348.359 171.378 348.576C171.445 348.79 171.548 348.99 171.685 349.165Z" fill="#E9D1FF"/>
<mask id="mask2_137_1527" style="mask-type:luminance" maskUnits="userSpaceOnUse" x="144" y="326" width="49" height="49">
<path d="M144.486 347.233L170.664 326.781L192.18 354.321L166.003 374.773L144.486 347.233Z" fill="white"/>
</mask>
<g mask="url(#mask2_137_1527)">
<path d="M156.529 362.498C166.851 358.535 180.814 354.989 191.379 354.947L175.223 346.066L168.472 328.891C167.092 339.377 161.77 352.779 156.529 362.498Z" fill="#E9D1FF"/>
</g>
</g>
<defs>
<clipPath id="clip0_137_1527">
<rect width="263.618" height="270.047" fill="white" transform="translate(0 162.299) rotate(-38)"/>
</clipPath>
</defs>
</svg>
