<svg width="1300" height="300" viewBox="0 0 1300 300" fill="none" xmlns="http://www.w3.org/2000/svg">
<rect width="1300" height="300" rx="20" fill="url(#paint0_linear_70_137)"/>
<path d="M461.82 200.68C454.073 200.68 446.56 199.653 439.28 197.6C432.093 195.453 426.307 192.7 421.92 189.34L429.62 172.26C433.82 175.34 438.813 177.813 444.6 179.68C450.387 181.547 456.173 182.48 461.96 182.48C468.4 182.48 473.16 181.547 476.24 179.68C479.32 177.72 480.86 175.153 480.86 171.98C480.86 169.647 479.927 167.733 478.06 166.24C476.287 164.653 473.953 163.393 471.06 162.46C468.26 161.527 464.433 160.5 459.58 159.38C452.113 157.607 446 155.833 441.24 154.06C436.48 152.287 432.373 149.44 428.92 145.52C425.56 141.6 423.88 136.373 423.88 129.84C423.88 124.147 425.42 119.013 428.5 114.44C431.58 109.773 436.2 106.087 442.36 103.38C448.613 100.673 456.22 99.32 465.18 99.32C471.433 99.32 477.547 100.067 483.52 101.56C489.493 103.053 494.72 105.2 499.2 108L492.2 125.22C483.147 120.087 474.093 117.52 465.04 117.52C458.693 117.52 453.98 118.547 450.9 120.6C447.913 122.653 446.42 125.36 446.42 128.72C446.42 132.08 448.147 134.6 451.6 136.28C455.147 137.867 460.513 139.453 467.7 141.04C475.167 142.813 481.28 144.587 486.04 146.36C490.8 148.133 494.86 150.933 498.22 154.76C501.673 158.587 503.4 163.767 503.4 170.3C503.4 175.9 501.813 181.033 498.64 185.7C495.56 190.273 490.893 193.913 484.64 196.62C478.387 199.327 470.78 200.68 461.82 200.68ZM561.877 122.56C568.877 122.56 575.224 124.193 580.917 127.46C586.704 130.633 591.231 135.16 594.497 141.04C597.764 146.827 599.397 153.593 599.397 161.34C599.397 169.087 597.764 175.9 594.497 181.78C591.231 187.567 586.704 192.093 580.917 195.36C575.224 198.533 568.877 200.12 561.877 200.12C552.264 200.12 544.704 197.087 539.197 191.02V226.16H517.357V123.68H538.217V132.36C543.631 125.827 551.517 122.56 561.877 122.56ZM558.097 182.2C563.697 182.2 568.271 180.333 571.817 176.6C575.457 172.773 577.277 167.687 577.277 161.34C577.277 154.993 575.457 149.953 571.817 146.22C568.271 142.393 563.697 140.48 558.097 140.48C552.497 140.48 547.877 142.393 544.237 146.22C540.691 149.953 538.917 154.993 538.917 161.34C538.917 167.687 540.691 172.773 544.237 176.6C547.877 180.333 552.497 182.2 558.097 182.2ZM651.958 182.62C655.878 182.62 659.331 182.06 662.318 180.94C665.398 179.727 668.244 177.86 670.858 175.34L682.478 187.94C675.384 196.06 665.024 200.12 651.398 200.12C642.904 200.12 635.391 198.487 628.858 195.22C622.324 191.86 617.284 187.24 613.738 181.36C610.191 175.48 608.418 168.807 608.418 161.34C608.418 153.967 610.144 147.34 613.598 141.46C617.144 135.487 621.951 130.867 628.018 127.6C634.178 124.24 641.084 122.56 648.738 122.56C655.924 122.56 662.458 124.1 668.338 127.18C674.218 130.167 678.884 134.553 682.338 140.34C685.884 146.033 687.658 152.8 687.658 160.64L631.938 171.42C633.524 175.153 635.998 177.953 639.358 179.82C642.811 181.687 647.011 182.62 651.958 182.62ZM648.738 139.08C643.231 139.08 638.751 140.853 635.298 144.4C631.844 147.947 630.024 152.847 629.838 159.1L666.518 151.96C665.491 148.04 663.391 144.913 660.218 142.58C657.044 140.247 653.218 139.08 648.738 139.08ZM778.778 123.68V199H757.918V190.32C752.504 196.853 744.664 200.12 734.398 200.12C727.304 200.12 720.864 198.533 715.078 195.36C709.384 192.187 704.904 187.66 701.638 181.78C698.371 175.9 696.738 169.087 696.738 161.34C696.738 153.593 698.371 146.78 701.638 140.9C704.904 135.02 709.384 130.493 715.078 127.32C720.864 124.147 727.304 122.56 734.398 122.56C744.011 122.56 751.524 125.593 756.938 131.66V123.68H778.778ZM738.178 182.2C743.684 182.2 748.258 180.333 751.898 176.6C755.538 172.773 757.358 167.687 757.358 161.34C757.358 154.993 755.538 149.953 751.898 146.22C748.258 142.393 743.684 140.48 738.178 140.48C732.578 140.48 727.958 142.393 724.318 146.22C720.678 149.953 718.858 154.993 718.858 161.34C718.858 167.687 720.678 172.773 724.318 176.6C727.958 180.333 732.578 182.2 738.178 182.2ZM831.338 169.46L820.838 179.82V199H798.998V95.12H820.838V153.92L852.758 123.68H878.798L847.438 155.6L881.598 199H855.138L831.338 169.46Z" fill="white"/>
<path d="M364.584 226.875C364.486 225.605 364.438 223.408 364.438 220.283C364.438 217.061 364.438 213.154 364.438 208.564C364.438 203.975 364.438 198.75 364.438 192.891C364.438 187.031 364.438 180.83 364.438 174.287C364.535 167.744 364.584 160.957 364.584 153.926C364.584 146.895 364.633 139.814 364.73 132.686C364.926 107.881 365.17 80.2441 365.463 49.7754L407.211 47.7246C407.113 80.5371 407.211 110.713 407.504 138.252C407.602 146.064 407.699 153.926 407.797 161.836C407.895 169.648 407.992 177.266 408.09 184.688C408.188 192.109 408.334 199.189 408.529 205.928C408.725 212.666 408.92 218.77 409.115 224.238C409.311 229.707 409.506 234.492 409.701 238.594C409.994 242.695 410.287 245.771 410.58 247.822C410.678 249.189 410.238 250.557 409.262 251.924C408.285 253.193 406.918 254.316 405.16 255.293C403.5 256.367 401.596 257.197 399.447 257.783C397.299 258.467 395.15 258.809 393.002 258.809C386.947 258.809 382.064 258.174 378.354 256.904C374.74 255.635 371.957 253.73 370.004 251.191C368.051 248.555 366.684 245.234 365.902 241.23C365.219 237.227 364.779 232.441 364.584 226.875ZM621.664 209.443C623.617 208.857 625.521 208.32 627.377 207.832C629.33 207.246 631.186 207.002 632.943 207.1C634.701 207.1 636.264 207.49 637.631 208.271C639.096 209.053 640.365 210.371 641.439 212.227C641.928 215.059 642.025 217.402 641.732 219.258C641.537 221.016 641 222.627 640.121 224.092C639.34 225.557 638.266 226.924 636.898 228.193C635.531 229.463 633.969 230.977 632.211 232.734C627.328 237.617 621.518 241.768 614.779 245.186C608.139 248.506 601.205 251.24 593.979 253.389C586.752 255.439 579.574 256.904 572.445 257.783C565.316 258.76 558.92 259.248 553.256 259.248C535.775 259.248 520.346 257.051 506.967 252.656C493.686 248.164 482.553 241.768 473.568 233.467C464.584 225.068 457.797 214.814 453.207 202.705C448.617 190.596 446.322 176.826 446.322 161.396C446.322 141.084 449.203 123.604 454.965 108.955C460.727 94.209 468.686 82.1484 478.842 72.7734C489.096 63.3008 501.205 56.3184 515.17 51.8262C529.135 47.334 544.271 45.0879 560.58 45.0879C572.201 45.0879 583.041 46.0156 593.1 47.8711C603.158 49.7266 612.484 52.7539 621.078 56.9531C623.617 58.0273 626.254 59.9805 628.988 62.8125C631.82 65.6445 634.408 69.0137 636.752 72.9199C639.193 76.8262 641.244 81.0742 642.904 85.6641C644.662 90.2539 645.785 94.8926 646.273 99.5801C646.762 104.268 646.469 108.809 645.395 113.203C644.32 117.5 642.172 121.357 638.949 124.775L606.576 114.229C605.6 110.225 604.525 106.611 603.354 103.389C602.279 100.166 600.961 97.2852 599.398 94.7461C597.934 92.207 596.176 89.9121 594.125 87.8613C592.074 85.8105 589.633 83.9062 586.801 82.1484C584.164 80.4883 580.99 79.3652 577.279 78.7793C573.666 78.1934 569.223 77.8027 563.949 77.6074C555.258 77.5098 546.566 79.0723 537.875 82.2949C529.281 85.5176 521.518 90.6934 514.584 97.8223C507.65 104.854 502.035 113.936 497.738 125.068C493.441 136.201 491.293 149.629 491.293 165.352C491.293 176.777 493.051 186.787 496.566 195.381C500.18 203.975 504.916 211.104 510.775 216.768C516.635 222.432 523.275 226.582 530.697 229.219C538.119 231.855 545.736 233.027 553.549 232.734C560.385 232.539 566.342 232.002 571.42 231.123C576.596 230.244 581.186 229.17 585.189 227.9C589.193 226.533 592.758 225.068 595.883 223.506C599.008 221.943 601.938 220.332 604.672 218.672C607.504 217.012 610.238 215.4 612.875 213.838C615.609 212.178 618.539 210.713 621.664 209.443ZM776.352 213.838C772.543 207.393 768.393 199.922 763.9 191.426C759.506 182.832 754.965 173.75 750.277 164.18C745.59 154.512 740.854 144.6 736.068 134.443C731.283 124.287 726.645 114.375 722.152 104.707C721.664 115.645 721.225 126.973 720.834 138.691C720.541 150.312 720.248 161.738 719.955 172.969C719.76 184.102 719.564 194.697 719.369 204.756C719.271 214.717 719.174 223.457 719.076 230.977C719.076 238.496 719.076 244.502 719.076 248.994C719.076 253.389 719.174 255.586 719.369 255.586L689.047 254.561C688.656 249.873 688.314 243.477 688.021 235.371C687.826 227.168 687.777 217.744 687.875 207.1C687.973 196.455 688.217 184.883 688.607 172.383C689.096 159.883 689.73 146.943 690.512 133.564C691.293 120.088 692.318 106.514 693.588 92.8418C694.857 79.0723 696.371 65.6445 698.129 52.5586C700.668 53.2422 703.5 53.4863 706.625 53.291C709.75 52.998 712.973 52.6074 716.293 52.1191C719.711 51.5332 723.08 50.9961 726.4 50.5078C729.818 49.9219 732.992 49.6777 735.922 49.7754C738.852 49.873 741.439 50.5078 743.686 51.6797C746.029 52.7539 747.885 54.6094 749.252 57.2461C749.936 58.6133 751.254 61.543 753.207 66.0352C755.258 70.4297 757.748 75.8984 760.678 82.4414C763.607 88.9844 766.928 96.3574 770.639 104.561C774.447 112.666 778.451 121.064 782.65 129.756C786.85 138.447 791.146 147.188 795.541 155.977C799.936 164.766 804.281 173.066 808.578 180.879C813.266 172.09 818.441 162.666 824.105 152.607C829.77 142.451 835.873 131.807 842.416 120.674C849.057 109.541 856.186 98.0664 863.803 86.25C871.518 74.3359 879.721 62.2266 888.412 49.9219C888.412 49.9219 888.51 49.9707 888.705 50.0684C891.439 50.6543 894.369 50.8008 897.494 50.5078C900.717 50.1172 903.891 49.6777 907.016 49.1895C910.238 48.6035 913.266 48.0664 916.098 47.5781C919.027 46.9922 921.615 46.748 923.861 46.8457C926.107 46.9434 927.865 47.4805 929.135 48.457C930.502 49.4336 931.186 51.1426 931.186 53.584C931.186 85.5176 931.332 114.814 931.625 141.475C931.723 148.994 931.771 156.611 931.771 164.326C931.869 171.943 931.967 179.365 932.064 186.592C932.162 193.721 932.26 200.557 932.357 207.1C932.553 213.643 932.699 219.6 932.797 224.971C932.992 230.244 933.139 234.883 933.236 238.887C933.432 242.793 933.627 245.771 933.822 247.822C933.92 249.189 933.48 250.557 932.504 251.924C931.625 253.193 930.404 254.316 928.842 255.293C927.279 256.367 925.424 257.197 923.275 257.783C921.225 258.467 919.125 258.809 916.977 258.809C910.922 258.809 905.99 258.076 902.182 256.611C898.471 255.244 895.541 253.145 893.393 250.312C891.342 247.48 889.975 244.014 889.291 239.912C888.607 235.713 888.314 230.83 888.412 225.264V105.879C882.553 115.742 876.791 125.557 871.127 135.322C865.561 145.088 860.238 154.414 855.16 163.301C850.18 172.188 845.541 180.488 841.244 188.203C836.947 195.82 833.188 202.51 829.965 208.271C826.742 213.936 824.154 218.477 822.201 221.895C820.346 225.215 819.271 227.021 818.979 227.314C815.756 230.146 812.387 232.295 808.871 233.76C805.355 235.225 802.084 235.957 799.057 235.957C796.127 235.957 793.588 235.371 791.439 234.199C789.291 233.027 787.338 231.416 785.58 229.365C783.822 227.314 782.211 224.971 780.746 222.334C779.281 219.6 777.816 216.768 776.352 213.838Z" fill="white" fill-opacity="0.2"/>
<defs>
<linearGradient id="paint0_linear_70_137" x1="-1.20894e-05" y1="300" x2="988.369" y2="-424.897" gradientUnits="userSpaceOnUse">
<stop stop-color="#1C0134"/>
<stop offset="1" stop-color="#3C035B"/>
</linearGradient>
</defs>
</svg>
